<svg width="60" height="59" viewBox="0 0 60 59" fill="none" xmlns="http://www.w3.org/2000/svg">
<ellipse cx="30" cy="29.0625" rx="30" ry="29.0625" fill="#F4A950"/>
<path d="M13.38 41.61C12.78 41.29 12.4 40.96 12.24 40.62C12.08 40.28 12 39.99 12 39.75C12 39.21 12.19 38.49 12.57 37.59C12.97 36.67 13.5 35.62 14.16 34.44C14.82 33.26 15.57 32.03 16.41 30.75C15.79 30.71 15.2 30.68 14.64 30.66C14.08 30.64 13.36 30.63 12.48 30.63H12C12.28 29.91 12.72 29.41 13.32 29.13C13.94 28.83 14.66 28.68 15.48 28.68C15.82 28.68 16.17 28.7 16.53 28.74C16.91 28.78 17.3 28.82 17.7 28.86C18.7 27.42 19.68 26.06 20.64 24.78C21.62 23.5 22.54 22.35 23.4 21.33C24.28 20.29 25.06 19.44 25.74 18.78C26.7 17.82 27.4 17.34 27.84 17.34C28.12 17.34 28.43 17.45 28.77 17.67C29.13 17.89 29.5 18.17 29.88 18.51C29.68 18.67 29.42 19.08 29.1 19.74C28.8 20.4 28.47 21.24 28.11 22.26C27.77 23.26 27.42 24.36 27.06 25.56C26.72 26.76 26.41 27.98 26.13 29.22C25.85 30.46 25.62 31.65 25.44 32.79C25.28 33.91 25.2 34.9 25.2 35.76C25.2 36.56 25.28 37.16 25.44 37.56C25.6 37.94 25.87 38.13 26.25 38.13C26.71 38.13 27.28 37.78 27.96 37.08C28.64 36.38 29.4 35.24 30.24 33.66L30.78 34.23C30.16 35.87 29.35 37.22 28.35 38.28C27.37 39.34 26.32 39.87 25.2 39.87C24.24 39.87 23.56 39.46 23.16 38.64C22.76 37.8 22.56 36.66 22.56 35.22C22.56 34.76 22.59 34.24 22.65 33.66C22.71 33.08 22.81 32.36 22.95 31.5C22.07 31.36 21.29 31.25 20.61 31.17C19.93 31.09 19.28 31.01 18.66 30.93C17.7 32.63 16.77 34.39 15.87 36.21C14.97 38.03 14.14 39.83 13.38 41.61ZM23.25 30.03C23.51 28.85 23.81 27.66 24.15 26.46C24.51 25.24 24.88 24.08 25.26 22.98C25.66 21.86 26.05 20.86 26.43 19.98C25.83 20.46 25.16 21.15 24.42 22.05C23.68 22.95 22.9 24.01 22.08 25.23C21.28 26.45 20.46 27.78 19.62 29.22C20.22 29.34 20.82 29.47 21.42 29.61C22.02 29.75 22.63 29.89 23.25 30.03ZM37.9158 41.61C36.7558 41.61 35.6458 41.41 34.5858 41.01C33.5458 40.61 32.6958 40 32.0358 39.18C31.3758 38.36 31.0458 37.34 31.0458 36.12C31.0458 35.04 31.2858 34.2 31.7658 33.6C32.2458 32.98 32.8458 32.55 33.5658 32.31C34.2858 32.07 34.9858 31.95 35.6658 31.95C35.0258 32.63 34.5358 33.33 34.1958 34.05C33.8758 34.77 33.7158 35.46 33.7158 36.12C33.7158 36.8 33.8858 37.44 34.2258 38.04C34.5858 38.62 35.1158 39.09 35.8158 39.45C36.5158 39.83 37.3858 40.02 38.4258 40.02C39.3258 40.02 40.1958 39.87 41.0358 39.57C41.8958 39.27 42.5958 38.82 43.1358 38.22C43.6958 37.62 43.9758 36.87 43.9758 35.97C43.9758 35.15 43.7358 34.45 43.2558 33.87C42.7958 33.27 42.1958 32.74 41.4558 32.28C40.7158 31.8 39.9358 31.35 39.1158 30.93C38.2958 30.49 37.5158 30.02 36.7758 29.52C36.0358 29.02 35.4258 28.44 34.9458 27.78C34.4858 27.12 34.2558 26.33 34.2558 25.41C34.2558 24.59 34.4558 23.72 34.8558 22.8C35.2758 21.86 35.8658 20.98 36.6258 20.16C37.3858 19.34 38.3058 18.68 39.3858 18.18C40.4658 17.66 41.6658 17.4 42.9858 17.4C44.3658 17.4 45.3358 17.69 45.8958 18.27C46.4558 18.85 46.7358 19.61 46.7358 20.55C46.7358 21.29 46.6058 22.08 46.3458 22.92C46.0858 23.76 45.7658 24.56 45.3858 25.32C45.0258 26.08 44.6758 26.73 44.3358 27.27C43.8958 27.17 43.5658 27 43.3458 26.76C43.1258 26.5 43.0158 26.16 43.0158 25.74C43.0158 25.32 43.0958 24.85 43.2558 24.33C43.4358 23.81 43.6358 23.27 43.8558 22.71C44.0958 22.15 44.2958 21.61 44.4558 21.09C44.6358 20.55 44.7258 20.08 44.7258 19.68C44.7258 19.32 44.6158 19.04 44.3958 18.84C44.1958 18.64 43.7758 18.54 43.1358 18.54C42.1758 18.54 41.2958 18.75 40.4958 19.17C39.6958 19.59 38.9958 20.12 38.3958 20.76C37.8158 21.4 37.3658 22.08 37.0458 22.8C36.7258 23.5 36.5658 24.14 36.5658 24.72C36.5658 25.44 36.7958 26.06 37.2558 26.58C37.7158 27.08 38.3058 27.54 39.0258 27.96C39.7658 28.38 40.5358 28.8 41.3358 29.22C42.1558 29.64 42.9258 30.11 43.6458 30.63C44.3858 31.15 44.9858 31.77 45.4458 32.49C45.9058 33.21 46.1358 34.09 46.1358 35.13C46.1358 36.17 45.8958 37.09 45.4158 37.89C44.9558 38.69 44.3258 39.36 43.5258 39.9C42.7258 40.46 41.8358 40.88 40.8558 41.16C39.8958 41.46 38.9158 41.61 37.9158 41.61Z" fill="white"/>
</svg>
