<svg width="182" height="33" viewBox="0 0 182 33" fill="none" xmlns="http://www.w3.org/2000/svg">
<path d="M1.84 32.48C1.04 32.0533 0.533333 31.6133 0.32 31.16C0.106667 30.7067 0 30.32 0 30C0 29.28 0.253333 28.32 0.76 27.12C1.29333 25.8933 2 24.4933 2.88 22.92C3.76 21.3467 4.76 19.7067 5.88 18C5.05333 17.9467 4.26667 17.9067 3.52 17.88C2.77333 17.8533 1.81333 17.84 0.64 17.84H0C0.373333 16.88 0.96 16.2133 1.76 15.84C2.58667 15.44 3.54667 15.24 4.64 15.24C5.09333 15.24 5.56 15.2667 6.04 15.32C6.54667 15.3733 7.06667 15.4267 7.6 15.48C8.93333 13.56 10.24 11.7467 11.52 10.04C12.8267 8.33333 14.0533 6.8 15.2 5.44C16.3733 4.05333 17.4133 2.92 18.32 2.04C19.6 0.759998 20.5333 0.119998 21.12 0.119998C21.4933 0.119998 21.9067 0.266665 22.36 0.559999C22.84 0.853332 23.3333 1.22667 23.84 1.68C23.5733 1.89333 23.2267 2.44 22.8 3.32C22.4 4.2 21.96 5.32 21.48 6.68C21.0267 8.01333 20.56 9.48 20.08 11.08C19.6267 12.68 19.2133 14.3067 18.84 15.96C18.4667 17.6133 18.16 19.2 17.92 20.72C17.7067 22.2133 17.6 23.5333 17.6 24.68C17.6 25.7467 17.7067 26.5467 17.92 27.08C18.1333 27.5867 18.4933 27.84 19 27.84C19.6133 27.84 20.3733 27.3733 21.28 26.44C22.1867 25.5067 23.2 23.9867 24.32 21.88L25.04 22.64C24.2133 24.8267 23.1333 26.6267 21.8 28.04C20.4933 29.4533 19.0933 30.16 17.6 30.16C16.32 30.16 15.4133 29.6133 14.88 28.52C14.3467 27.4 14.08 25.88 14.08 23.96C14.08 23.3467 14.12 22.6533 14.2 21.88C14.28 21.1067 14.4133 20.1467 14.6 19C13.4267 18.8133 12.3867 18.6667 11.48 18.56C10.5733 18.4533 9.70667 18.3467 8.88 18.24C7.6 20.5067 6.36 22.8533 5.16 25.28C3.96 27.7067 2.85333 30.1067 1.84 32.48ZM15 17.04C15.3467 15.4667 15.7467 13.88 16.2 12.28C16.68 10.6533 17.1733 9.10667 17.68 7.64C18.2133 6.14667 18.7333 4.81333 19.24 3.64C18.44 4.28 17.5467 5.2 16.56 6.4C15.5733 7.6 14.5333 9.01333 13.44 10.64C12.3733 12.2667 11.28 14.04 10.16 15.96C10.96 16.12 11.76 16.2933 12.56 16.48C13.36 16.6667 14.1733 16.8533 15 17.04ZM27.8831 31.04C26.5498 31.04 25.4698 30.76 24.6431 30.2C23.8431 29.6667 23.2698 28.9867 22.9231 28.16C22.5765 27.3067 22.4031 26.44 22.4031 25.56C22.4031 24.7867 22.5098 24.1867 22.7231 23.76C22.9365 23.3333 23.2031 23.0267 23.5231 22.84C23.8431 22.6267 24.1365 22.4667 24.4031 22.36C24.6965 22.2533 24.9098 22.1333 25.0431 22C25.7098 21.3067 26.3898 20.5067 27.0831 19.6C27.8031 18.6667 28.4165 17.64 28.9231 16.52V16.12C28.9231 15.0533 29.0965 14.3067 29.4431 13.88C29.8165 13.4267 30.2431 13.2 30.7231 13.2C31.0431 13.2 31.2698 13.28 31.4031 13.44C31.5631 13.6 31.6565 13.7867 31.6831 14C31.6831 14.16 31.6431 14.3467 31.5631 14.56C31.5098 14.7733 31.4831 15.0667 31.4831 15.44C31.4831 16.24 31.6698 17.16 32.0431 18.2C32.4431 19.2133 32.8298 20.2933 33.2031 21.44C33.6031 22.5867 33.8031 23.76 33.8031 24.96C33.8031 25.28 33.7898 25.5733 33.7631 25.84C33.7365 26.1067 33.6965 26.36 33.6431 26.6C34.4698 26.3867 35.2831 25.9333 36.0831 25.24C36.8831 24.52 37.6431 23.4667 38.3631 22.08L38.8431 22.44C38.3365 23.96 37.6031 25.1867 36.6431 26.12C35.6831 27.0267 34.5631 27.5867 33.2831 27.8C32.8565 28.8933 32.1498 29.7067 31.1631 30.24C30.2031 30.7733 29.1098 31.04 27.8831 31.04ZM27.6031 29.28C28.1365 29.28 28.6298 29.1467 29.0831 28.88C29.5365 28.6133 29.8965 28.2267 30.1631 27.72C29.0698 27.48 28.0831 27.0533 27.2031 26.44C26.3231 25.8267 25.6431 25.2 25.1631 24.56C24.7898 24.64 24.6031 25 24.6031 25.64C24.6031 26.52 24.8565 27.3467 25.3631 28.12C25.8698 28.8933 26.6165 29.28 27.6031 29.28ZM30.4831 26.52C30.5365 26.3333 30.5631 26.12 30.5631 25.88C30.5898 25.6133 30.6031 25.4133 30.6031 25.28C30.5765 24.08 30.4165 22.8933 30.1231 21.72C29.8298 20.5467 29.5365 19.3467 29.2431 18.12C28.7631 18.9467 28.2031 19.84 27.5631 20.8C26.9231 21.76 26.3231 22.5333 25.7631 23.12C26.1898 23.84 26.8165 24.52 27.6431 25.16C28.4698 25.8 29.4165 26.2533 30.4831 26.52ZM58.1466 30.24C57.1066 30.24 56.3332 29.9333 55.8266 29.32C55.3199 28.7067 55.0666 27.9733 55.0666 27.12C55.0666 26.5067 55.1599 25.8933 55.3466 25.28C55.5332 24.6667 55.7199 24.0667 55.9066 23.48C56.0932 22.8667 56.1866 22.32 56.1866 21.84C56.1866 21.3867 56.0932 21.08 55.9066 20.92C55.7466 20.7333 55.5332 20.64 55.2666 20.64C54.6532 20.64 53.9332 21.1067 53.1066 22.04C52.3066 22.9733 51.3066 24.3333 50.1066 26.12C49.6799 26.76 49.2799 27.44 48.9066 28.16C48.5332 28.8533 48.1999 29.44 47.9066 29.92C47.6666 29.92 47.3466 29.88 46.9466 29.8C46.5732 29.72 46.2399 29.6 45.9466 29.44C45.6532 29.3067 45.5066 29.12 45.5066 28.88C45.5066 28.64 45.6399 28.1733 45.9066 27.48C46.1732 26.7867 46.4799 25.9867 46.8266 25.08C47.1732 24.1467 47.4799 23.24 47.7466 22.36C48.0132 21.4533 48.1466 20.6933 48.1466 20.08C48.1466 19.7067 48.0799 19.4133 47.9466 19.2C47.8132 18.9867 47.5999 18.88 47.3066 18.88C46.7466 18.88 46.0666 19.2133 45.2666 19.88C44.4932 20.5467 43.6666 21.4267 42.7866 22.52C41.9332 23.5867 41.1199 24.7867 40.3466 26.12C39.5999 27.4267 38.9866 28.7467 38.5066 30.08C38.2132 30.08 37.8532 30.0133 37.4266 29.88C36.9999 29.7733 36.6266 29.6267 36.3066 29.44C35.9866 29.28 35.8266 29.1333 35.8266 29C35.8266 28.9733 35.9199 28.6 36.1066 27.88C36.2932 27.1333 36.5199 26.2133 36.7866 25.12C37.0532 24.0267 37.3332 22.9067 37.6266 21.76C37.9199 20.6133 38.1732 19.6133 38.3866 18.76C38.4666 18.4667 38.7599 18.2133 39.2666 18C39.7732 17.76 40.2132 17.64 40.5866 17.64C40.9599 17.64 41.2799 17.76 41.5466 18C41.8132 18.24 41.9466 18.56 41.9466 18.96C41.9466 19.2267 41.8932 19.6133 41.7866 20.12C41.6799 20.6267 41.5466 21.2 41.3866 21.84C41.9466 21.0933 42.5332 20.36 43.1466 19.64C43.7866 18.8933 44.4399 18.2267 45.1066 17.64C45.7999 17.0533 46.4799 16.5867 47.1466 16.24C47.8399 15.8933 48.5199 15.72 49.1866 15.72C50.1732 15.72 50.8399 16.08 51.1866 16.8C51.5332 17.4933 51.7066 18.2533 51.7066 19.08C51.7066 19.4267 51.6799 19.7733 51.6266 20.12C51.5732 20.44 51.4932 20.7733 51.3866 21.12C51.3066 21.44 51.1866 21.8267 51.0266 22.28C51.5332 21.5333 52.0799 20.8533 52.6666 20.24C53.2799 19.6 53.9332 19.0933 54.6266 18.72C55.3199 18.3467 56.0532 18.16 56.8266 18.16C57.8666 18.16 58.5866 18.48 58.9866 19.12C59.3866 19.7333 59.5866 20.4133 59.5866 21.16C59.5866 21.8533 59.4666 22.5867 59.2266 23.36C59.0132 24.1067 58.7866 24.8267 58.5466 25.52C58.3332 26.1867 58.2266 26.76 58.2266 27.24C58.2266 27.5067 58.2932 27.76 58.4266 28C58.5599 28.2133 58.8266 28.32 59.2266 28.32C59.9466 28.32 60.6399 27.9867 61.3066 27.32C61.9732 26.6533 62.5866 25.84 63.1466 24.88C63.7332 23.8933 64.2266 22.96 64.6266 22.08L65.3066 22.92C64.8799 24.0133 64.3199 25.1333 63.6266 26.28C62.9599 27.4 62.1732 28.3333 61.2666 29.08C60.3599 29.8533 59.3199 30.24 58.1466 30.24ZM66.8328 30.2C65.6595 30.2 64.7795 29.8533 64.1928 29.16C63.6061 28.4667 63.3128 27.6267 63.3128 26.64C63.3128 26.0267 63.4195 25.2533 63.6328 24.32C63.8461 23.3867 64.1395 22.4133 64.5128 21.4C64.9128 20.36 65.3661 19.3867 65.8728 18.48C66.3795 17.5733 66.9261 16.84 67.5128 16.28C68.0995 15.6933 68.6861 15.4 69.2728 15.4C69.5928 15.4 69.8728 15.5067 70.1128 15.72C70.3528 15.9067 70.4728 16.1867 70.4728 16.56C70.4728 16.9067 70.2595 17.4267 69.8328 18.12C69.4328 18.8133 68.9528 19.6133 68.3928 20.52C67.8595 21.4267 67.3795 22.3733 66.9528 23.36C66.5528 24.32 66.3528 25.24 66.3528 26.12C66.3528 26.9733 66.4995 27.5467 66.7928 27.84C67.1128 28.1067 67.5661 28.24 68.1528 28.24C69.0595 28.24 70.0461 27.7867 71.1128 26.88C72.1795 25.9733 73.2861 24.3867 74.4328 22.12L75.0328 22.76C74.0995 25.1067 72.9128 26.9333 71.4728 28.24C70.0328 29.5467 68.4861 30.2 66.8328 30.2ZM71.5528 12.16C71.0461 12.16 70.5795 12.04 70.1528 11.8C69.7528 11.5333 69.5528 11.1333 69.5528 10.6C69.5528 9.96 69.8995 9.41333 70.5928 8.96C71.2861 8.50667 72.0061 8.28 72.7528 8.28C73.2328 8.28 73.6328 8.38667 73.9528 8.6C74.2995 8.81333 74.4728 9.2 74.4728 9.76C74.4728 10.32 74.1661 10.8667 73.5528 11.4C72.9395 11.9067 72.2728 12.16 71.5528 12.16ZM93.1091 32.48C91.5624 32.48 90.0824 32.2133 88.6691 31.68C87.2824 31.1467 86.1491 30.3333 85.2691 29.24C84.3891 28.1467 83.9491 26.7867 83.9491 25.16C83.9491 23.72 84.2691 22.6 84.9091 21.8C85.5491 20.9733 86.3491 20.4 87.3091 20.08C88.2691 19.76 89.2024 19.6 90.1091 19.6C89.2557 20.5067 88.6024 21.44 88.1491 22.4C87.7224 23.36 87.5091 24.28 87.5091 25.16C87.5091 26.0667 87.7357 26.92 88.1891 27.72C88.6691 28.4933 89.3757 29.12 90.3091 29.6C91.2424 30.1067 92.4024 30.36 93.7891 30.36C94.9891 30.36 96.1491 30.16 97.2691 29.76C98.4157 29.36 99.3491 28.76 100.069 27.96C100.816 27.16 101.189 26.16 101.189 24.96C101.189 23.8667 100.869 22.9333 100.229 22.16C99.6157 21.36 98.8157 20.6533 97.8291 20.04C96.8424 19.4 95.8024 18.8 94.7091 18.24C93.6157 17.6533 92.5757 17.0267 91.5891 16.36C90.6024 15.6933 89.7891 14.92 89.1491 14.04C88.5357 13.16 88.2291 12.1067 88.2291 10.88C88.2291 9.78667 88.4957 8.62667 89.0291 7.4C89.5891 6.14667 90.3757 4.97333 91.3891 3.88C92.4024 2.78667 93.6291 1.90667 95.0691 1.24C96.5091 0.546666 98.1091 0.199999 99.8691 0.199999C101.709 0.199999 103.002 0.586665 103.749 1.36C104.496 2.13333 104.869 3.14666 104.869 4.4C104.869 5.38667 104.696 6.44 104.349 7.56C104.002 8.68 103.576 9.74667 103.069 10.76C102.589 11.7733 102.122 12.64 101.669 13.36C101.082 13.2267 100.642 13 100.349 12.68C100.056 12.3333 99.9091 11.88 99.9091 11.32C99.9091 10.76 100.016 10.1333 100.229 9.44C100.469 8.74667 100.736 8.02666 101.029 7.28C101.349 6.53333 101.616 5.81333 101.829 5.12C102.069 4.4 102.189 3.77333 102.189 3.24C102.189 2.76 102.042 2.38666 101.749 2.12C101.482 1.85333 100.922 1.72 100.069 1.72C98.7891 1.72 97.6157 2 96.5491 2.56C95.4824 3.12 94.5491 3.82666 93.7491 4.68C92.9757 5.53333 92.3757 6.44 91.9491 7.4C91.5224 8.33333 91.3091 9.18667 91.3091 9.96C91.3091 10.92 91.6157 11.7467 92.2291 12.44C92.8424 13.1067 93.6291 13.72 94.5891 14.28C95.5757 14.84 96.6024 15.4 97.6691 15.96C98.7624 16.52 99.7891 17.1467 100.749 17.84C101.736 18.5333 102.536 19.36 103.149 20.32C103.762 21.28 104.069 22.4533 104.069 23.84C104.069 25.2267 103.749 26.4533 103.109 27.52C102.496 28.5867 101.656 29.48 100.589 30.2C99.5224 30.9467 98.3357 31.5067 97.0291 31.88C95.7491 32.28 94.4424 32.48 93.1091 32.48ZM110.124 30.84C108.951 30.84 108.004 30.4933 107.284 29.8C106.564 29.1067 106.204 28.0533 106.204 26.64C106.204 25.5467 106.404 24.1867 106.804 22.56C107.231 20.9333 107.764 19.2533 108.404 17.52C108.218 17.4667 107.991 17.4267 107.724 17.4C107.484 17.3467 107.244 17.2667 107.004 17.16V15.92C107.431 15.9733 107.778 16.0133 108.044 16.04C108.338 16.0667 108.631 16.0933 108.924 16.12C109.484 14.7067 110.084 13.3467 110.724 12.04C111.391 10.7067 112.044 9.52 112.684 8.48C113.351 7.44 113.978 6.62667 114.564 6.04C115.151 5.42667 115.671 5.12 116.124 5.12C116.391 5.12 116.644 5.22667 116.884 5.44C117.124 5.62667 117.244 5.90667 117.244 6.28C117.244 6.81333 116.964 7.57333 116.404 8.56C115.871 9.54667 115.204 10.7067 114.404 12.04C113.604 13.3467 112.831 14.7467 112.084 16.24C112.298 16.24 112.511 16.24 112.724 16.24C112.938 16.24 113.138 16.24 113.324 16.24C114.498 16.24 115.551 16.2267 116.484 16.2C117.444 16.1467 118.418 16.0667 119.404 15.96V17.28C117.938 17.4133 116.591 17.52 115.364 17.6C114.138 17.68 112.964 17.7333 111.844 17.76C111.764 17.76 111.684 17.76 111.604 17.76C111.524 17.76 111.444 17.76 111.364 17.76C110.804 19.0667 110.311 20.4133 109.884 21.8C109.484 23.16 109.284 24.4933 109.284 25.8C109.284 26.8933 109.458 27.6667 109.804 28.12C110.151 28.5733 110.698 28.8 111.444 28.8C112.778 28.8 114.138 28.2 115.524 27C116.938 25.7733 118.164 24.12 119.204 22.04L119.764 22.44C119.071 24.0133 118.204 25.44 117.164 26.72C116.151 28 115.044 29 113.844 29.72C112.644 30.4667 111.404 30.84 110.124 30.84ZM121.048 30.2C120.141 30.2 119.394 29.7867 118.808 28.96C118.248 28.1067 117.968 27.1333 117.968 26.04C117.968 25.2933 118.088 24.4133 118.328 23.4C118.568 22.3867 118.874 21.4 119.248 20.44C119.648 19.48 120.048 18.68 120.448 18.04C120.874 17.4 121.261 17.08 121.608 17.08C121.794 17.08 122.074 17.1867 122.448 17.4C122.848 17.5867 123.194 17.8267 123.488 18.12C123.194 18.5467 122.834 19.2 122.408 20.08C122.008 20.96 121.648 21.9067 121.328 22.92C121.008 23.9333 120.848 24.8533 120.848 25.68C120.848 25.7867 120.861 26.04 120.888 26.44C120.941 26.84 121.048 27.2133 121.208 27.56C121.368 27.9067 121.648 28.08 122.048 28.08C122.501 28.08 122.981 27.84 123.488 27.36C124.021 26.8533 124.554 26.2133 125.088 25.44C125.648 24.64 126.181 23.7867 126.688 22.88C127.221 21.9733 127.688 21.0933 128.088 20.24C128.514 19.3867 128.861 18.6667 129.128 18.08C129.368 18.1067 129.674 18.1733 130.048 18.28C130.448 18.3867 130.794 18.5333 131.088 18.72C131.381 18.88 131.528 19.12 131.528 19.44C131.528 19.52 131.394 19.8533 131.128 20.44C130.888 21 130.594 21.68 130.248 22.48C129.928 23.28 129.634 24.1067 129.368 24.96C129.128 25.7867 129.008 26.52 129.008 27.16C129.008 27.5333 129.074 27.8667 129.208 28.16C129.368 28.4267 129.661 28.56 130.088 28.56C130.648 28.56 131.314 28.3067 132.088 27.8C132.861 27.2933 133.661 26.56 134.488 25.6C135.314 24.64 136.048 23.4933 136.688 22.16L137.288 22.64C136.701 24.08 135.941 25.3733 135.008 26.52C134.074 27.6667 133.074 28.56 132.008 29.2C130.941 29.8667 129.901 30.2 128.888 30.2C128.114 30.2 127.528 30.0133 127.128 29.64C126.754 29.2933 126.501 28.84 126.368 28.28C126.234 27.6933 126.154 27.1067 126.128 26.52C126.128 26.3867 126.128 26.2533 126.128 26.12C126.128 25.96 126.128 25.8267 126.128 25.72C125.674 26.44 125.181 27.1467 124.648 27.84C124.114 28.5067 123.541 29.0667 122.928 29.52C122.341 29.9733 121.714 30.2 121.048 30.2ZM138.424 30.2C137.917 30.2 137.397 30.0667 136.864 29.8C136.357 29.56 135.931 29.1733 135.584 28.64C135.211 28.1067 135.024 27.4267 135.024 26.6C135.024 25.72 135.237 24.7333 135.664 23.64C136.091 22.5467 136.664 21.4533 137.384 20.36C138.131 19.2667 138.984 18.2667 139.944 17.36C140.931 16.4533 141.971 15.72 143.064 15.16C144.157 14.6 145.264 14.32 146.384 14.32C146.997 14.32 147.477 14.4267 147.824 14.64C148.171 14.8267 148.344 15.1467 148.344 15.6C148.344 15.7333 148.317 15.8933 148.264 16.08C148.211 16.24 148.077 16.3867 147.864 16.52C147.757 16.36 147.571 16.2533 147.304 16.2C147.037 16.12 146.757 16.08 146.464 16.08C145.584 16.08 144.744 16.3333 143.944 16.84C143.144 17.32 142.411 17.9467 141.744 18.72C141.077 19.4933 140.491 20.3333 139.984 21.24C139.504 22.1467 139.131 23.0267 138.864 23.88C138.597 24.7067 138.464 25.4267 138.464 26.04C138.464 26.5467 138.571 26.96 138.784 27.28C138.997 27.5733 139.317 27.72 139.744 27.72C140.464 27.72 141.317 27.3067 142.304 26.48C143.317 25.6267 144.344 24.4133 145.384 22.84C146.451 21.24 147.411 19.3333 148.264 17.12C148.851 15.6 149.464 14.0533 150.104 12.48C150.744 10.88 151.384 9.34667 152.024 7.88C152.664 6.41333 153.291 5.10667 153.904 3.96C154.544 2.81333 155.144 1.90667 155.704 1.24C156.291 0.546666 156.824 0.199999 157.304 0.199999C157.597 0.199999 157.851 0.319999 158.064 0.559999C158.304 0.773333 158.424 1.05333 158.424 1.4C158.424 1.85333 158.197 2.58666 157.744 3.6C157.317 4.58666 156.757 5.77333 156.064 7.16C155.397 8.54667 154.664 10.0533 153.864 11.68C153.091 13.28 152.357 14.9333 151.664 16.64C150.997 18.32 150.437 19.9867 149.984 21.64C149.557 23.2667 149.344 24.8 149.344 26.24C149.344 26.88 149.397 27.32 149.504 27.56C149.637 27.7733 149.851 27.88 150.144 27.88C150.731 27.88 151.384 27.6533 152.104 27.2C152.824 26.7467 153.557 26.08 154.304 25.2C155.051 24.2933 155.731 23.2133 156.344 21.96L157.104 22.6C156.517 24.0667 155.771 25.36 154.864 26.48C153.957 27.6 152.984 28.4667 151.944 29.08C150.904 29.72 149.877 30.04 148.864 30.04C147.771 30.04 147.011 29.6933 146.584 29C146.157 28.3067 145.944 27.4933 145.944 26.56C145.944 26.1333 145.971 25.7067 146.024 25.28C146.104 24.8267 146.184 24.3867 146.264 23.96C145.437 25.16 144.557 26.24 143.624 27.2C142.717 28.1333 141.824 28.8667 140.944 29.4C140.064 29.9333 139.224 30.2 138.424 30.2ZM158.513 30.2C157.339 30.2 156.459 29.8533 155.873 29.16C155.286 28.4667 154.992 27.6267 154.992 26.64C154.992 26.0267 155.099 25.2533 155.312 24.32C155.526 23.3867 155.819 22.4133 156.193 21.4C156.593 20.36 157.046 19.3867 157.553 18.48C158.059 17.5733 158.606 16.84 159.193 16.28C159.779 15.6933 160.366 15.4 160.953 15.4C161.273 15.4 161.553 15.5067 161.793 15.72C162.033 15.9067 162.153 16.1867 162.153 16.56C162.153 16.9067 161.939 17.4267 161.513 18.12C161.113 18.8133 160.633 19.6133 160.073 20.52C159.539 21.4267 159.059 22.3733 158.633 23.36C158.233 24.32 158.033 25.24 158.033 26.12C158.033 26.9733 158.179 27.5467 158.473 27.84C158.793 28.1067 159.246 28.24 159.833 28.24C160.739 28.24 161.726 27.7867 162.793 26.88C163.859 25.9733 164.966 24.3867 166.113 22.12L166.713 22.76C165.779 25.1067 164.593 26.9333 163.153 28.24C161.713 29.5467 160.166 30.2 158.513 30.2ZM163.233 12.16C162.726 12.16 162.259 12.04 161.833 11.8C161.433 11.5333 161.233 11.1333 161.233 10.6C161.233 9.96 161.579 9.41333 162.273 8.96C162.966 8.50667 163.686 8.28 164.433 8.28C164.913 8.28 165.313 8.38667 165.633 8.6C165.979 8.81333 166.153 9.2 166.153 9.76C166.153 10.32 165.846 10.8667 165.233 11.4C164.619 11.9067 163.953 12.16 163.233 12.16ZM167.718 30.28C166.518 30.28 165.691 29.88 165.238 29.08C164.811 28.3067 164.598 27.4533 164.598 26.52C164.598 25.6667 164.731 24.8 164.998 23.92C165.265 23.0133 165.625 22.1733 166.078 21.4C166.558 20.6267 167.078 20.0133 167.638 19.56C168.225 19.08 168.811 18.84 169.398 18.84C169.585 18.84 169.798 18.88 170.038 18.96C170.305 19.0133 170.491 19.1067 170.598 19.24C170.278 19.64 169.945 20.1333 169.598 20.72C169.278 21.3067 168.971 21.9333 168.678 22.6C168.411 23.24 168.198 23.8933 168.038 24.56C167.878 25.2267 167.798 25.84 167.798 26.4C167.798 26.9333 167.891 27.3733 168.078 27.72C168.291 28.0667 168.651 28.24 169.158 28.24C169.665 28.24 170.265 27.96 170.958 27.4C171.678 26.8133 172.358 26.1467 172.998 25.4C172.145 24.6267 171.531 23.7867 171.158 22.88C170.785 21.9467 170.598 20.8267 170.598 19.52C170.598 18.96 170.731 18.32 170.998 17.6C171.291 16.88 171.745 16.2533 172.358 15.72C172.998 15.1867 173.851 14.92 174.918 14.92C176.065 14.92 176.865 15.24 177.318 15.88C177.798 16.52 178.038 17.28 178.038 18.16C178.038 19.1467 177.771 20.2533 177.238 21.48C176.731 22.7067 176.118 23.8667 175.398 24.96C175.718 25.12 176.091 25.2 176.518 25.2C176.918 25.2 177.398 25.1067 177.958 24.92C178.518 24.7333 179.065 24.4267 179.598 24C180.131 23.5467 180.558 22.9467 180.878 22.2L181.598 22.72C181.011 24.08 180.225 25.08 179.238 25.72C178.278 26.3333 177.331 26.64 176.398 26.64C176.051 26.64 175.705 26.6133 175.358 26.56C175.011 26.48 174.691 26.3867 174.398 26.28C173.491 27.3467 172.451 28.28 171.278 29.08C170.105 29.88 168.918 30.28 167.718 30.28ZM174.038 24.12C174.678 23.1867 175.225 22.1867 175.678 21.12C176.131 20.0533 176.358 19.0667 176.358 18.16C176.358 17.5467 176.265 17.1067 176.078 16.84C175.891 16.5467 175.611 16.4 175.238 16.4C174.731 16.4 174.211 16.76 173.678 17.48C173.145 18.2 172.878 19.1067 172.878 20.2C172.878 20.76 172.971 21.44 173.158 22.24C173.371 23.04 173.665 23.6667 174.038 24.12Z" fill="#F4A950"/>
</svg>
